<svg xmlns="http://www.w3.org/2000/svg" viewBox="0 0 256 256" focusable="false" color="var(--token-2930fc96-2a19-4c51-bdb3-fa6e89c47e8a, rgb(84, 86, 237))" style="user-select: none; width: 100%; height: 100%; display: inline-block; fill: var(--token-2930fc96-2a19-4c51-bdb3-fa6e89c47e8a, rgb(84, 86, 237)); color: var(--token-2930fc96-2a19-4c51-bdb3-fa6e89c47e8a, rgb(84, 86, 237)); flex-shrink: 0;"><g color="var(--token-2930fc96-2a19-4c51-bdb3-fa6e89c47e8a, rgb(84, 86, 237))" weight="fill"><path d="M173.79,51.48a221.25,221.25,0,0,0-41.67-34.34,8,8,0,0,0-8.24,0A221.25,221.25,0,0,0,82.21,51.48C54.59,80.48,40,112.47,40,144a88,88,0,0,0,176,0C216,112.47,201.41,80.48,173.79,51.48ZM96,184c0-27.67,22.53-47.28,32-54.3,9.48,7,32,26.63,32,54.3a32,32,0,0,1-64,0Z"></path></g></svg>