<svg xmlns="http://www.w3.org/2000/svg" width="28" height="29" viewBox="0 0 28 29" fill="none" id="svg-1434862940_561">
<path d="M14.0001 0.345703C6.26813 0.345703 0 6.64004 0 14.4043C0 21.368 5.04731 27.135 11.6651 28.2518V17.3373H8.28792V13.4097H11.6651V10.5135C11.6651 7.15322 13.709 5.32204 16.6946 5.32204C18.1245 5.32204 19.3533 5.42904 19.7101 5.47616V8.98859L17.6393 8.9896C16.016 8.9896 15.7031 9.76406 15.7031 10.9009V13.4076H19.5765L19.0713 17.3353H15.7031V28.3457C22.6299 27.4991 28 21.5851 28 14.4003C28 6.64004 21.7319 0.345703 14.0001 0.345703Z" fill="#444444"></path>
</svg>