<svg xmlns="http://www.w3.org/2000/svg" xmlns:xlink="http://www.w3.org/1999/xlink" viewBox="0 0 40 41"><g transform="translate(6 6.346)" id="ss9654204348_1"><path d="M 0 28 L 0 0 L 28 0 L 28 28 Z" fill="transparent"></path><path d="M 16.68 14 C 16.68 15.48 15.48 16.68 14 16.68 C 12.52 16.68 11.32 15.48 11.32 14 C 11.32 12.52 12.52 11.32 14 11.32 C 15.48 11.32 16.68 12.52 16.68 14 Z" fill="rgb(51,51,51)"></path><path d="M 20.267 9.258 C 20.138 8.909 19.933 8.593 19.666 8.334 C 19.406 8.067 19.09 7.862 18.741 7.733 C 18.458 7.623 18.032 7.492 17.249 7.456 C 16.401 7.417 16.146 7.409 14 7.409 C 11.853 7.409 11.599 7.417 10.751 7.456 C 9.968 7.492 9.542 7.623 9.259 7.733 C 8.91 7.862 8.594 8.067 8.335 8.334 C 8.068 8.593 7.862 8.909 7.733 9.258 C 7.623 9.542 7.492 9.967 7.456 10.751 C 7.418 11.599 7.409 11.853 7.409 14 C 7.409 16.146 7.418 16.401 7.456 17.248 C 7.492 18.032 7.623 18.458 7.733 18.741 C 7.862 19.09 8.067 19.406 8.334 19.665 C 8.594 19.932 8.909 20.138 9.259 20.267 C 9.542 20.377 9.968 20.508 10.751 20.544 C 11.599 20.582 11.853 20.59 14 20.59 C 16.147 20.59 16.401 20.582 17.248 20.544 C 18.032 20.508 18.458 20.377 18.741 20.267 C 19.442 19.996 19.996 19.442 20.267 18.741 C 20.377 18.458 20.508 18.032 20.544 17.248 C 20.582 16.401 20.59 16.146 20.59 14 C 20.59 11.853 20.582 11.599 20.544 10.751 C 20.508 9.967 20.377 9.542 20.267 9.258 Z M 14 18.128 C 11.72 18.128 9.872 16.28 9.872 14 C 9.872 11.72 11.72 9.872 14 9.872 C 16.28 9.872 18.128 11.72 18.128 14 C 18.128 16.28 16.28 18.128 14 18.128 Z M 18.291 10.673 C 17.759 10.673 17.327 10.241 17.327 9.708 C 17.327 9.176 17.759 8.744 18.291 8.744 C 18.824 8.744 19.256 9.176 19.256 9.708 C 19.256 10.241 18.824 10.673 18.291 10.673 Z" fill="rgb(51,51,51)"></path><path d="M 14 0 C 6.269 0 0 6.269 0 14 C 0 21.731 6.269 28 14 28 C 21.731 28 28 21.731 28 14 C 28 6.269 21.731 0 14 0 Z M 21.991 17.314 C 21.952 18.17 21.816 18.754 21.617 19.266 C 21.199 20.346 20.346 21.199 19.266 21.617 C 18.755 21.816 18.17 21.951 17.315 21.991 C 16.457 22.03 16.183 22.039 14 22.039 C 11.817 22.039 11.543 22.03 10.686 21.991 C 9.83 21.951 9.246 21.816 8.734 21.617 C 8.198 21.415 7.712 21.099 7.31 20.69 C 6.901 20.288 6.585 19.802 6.383 19.266 C 6.185 18.755 6.048 18.17 6.01 17.315 C 5.97 16.457 5.961 16.183 5.961 14 C 5.961 11.817 5.97 11.543 6.009 10.686 C 6.048 9.83 6.184 9.246 6.383 8.734 C 6.585 8.198 6.901 7.712 7.31 7.31 C 7.712 6.901 8.198 6.585 8.734 6.383 C 9.246 6.184 9.83 6.048 10.686 6.009 C 11.543 5.97 11.817 5.961 14 5.961 C 16.183 5.961 16.457 5.97 17.314 6.01 C 18.17 6.048 18.754 6.184 19.266 6.383 C 19.802 6.585 20.288 6.901 20.69 7.31 C 21.099 7.712 21.415 8.198 21.617 8.734 C 21.816 9.246 21.952 9.83 21.991 10.686 C 22.03 11.543 22.039 11.817 22.039 14 C 22.039 16.183 22.03 16.457 21.991 17.314 Z" fill="rgb(51,51,51)"></path></g></svg>