<svg xmlns="http://www.w3.org/2000/svg" xmlns:xlink="http://www.w3.org/1999/xlink" viewBox="0 0 40 41"><g transform="translate(6 6.346)" id="ss11093986109_1"><path d="M 0 28 L 0 0 L 28 0 L 28 28 Z" fill="transparent"></path><path d="M 14 0 C 6.269 0 0 6.269 0 14 C 0 21.731 6.269 28 14 28 C 21.731 28 28 21.731 28 14 C 28 6.269 21.731 0 14 0 Z M 9.932 21.164 L 6.522 21.164 L 6.522 10.906 L 9.932 10.906 Z M 8.227 9.505 L 8.205 9.505 C 7.061 9.505 6.321 8.718 6.321 7.733 C 6.321 6.727 7.083 5.961 8.25 5.961 C 9.416 5.961 10.134 6.727 10.156 7.733 C 10.156 8.718 9.416 9.505 8.227 9.505 Z M 22.226 21.164 L 18.817 21.164 L 18.817 15.676 C 18.817 14.297 18.323 13.357 17.09 13.357 C 16.148 13.357 15.587 13.991 15.34 14.604 C 15.25 14.823 15.228 15.129 15.228 15.436 L 15.228 21.164 L 11.819 21.164 C 11.819 21.164 11.863 11.869 11.819 10.906 L 15.228 10.906 L 15.228 12.359 C 15.681 11.66 16.492 10.665 18.301 10.665 C 20.544 10.665 22.226 12.131 22.226 15.282 Z" fill="rgb(51,51,51)"></path></g></svg>