<svg xmlns="http://www.w3.org/2000/svg" width="28" height="28" viewBox="0 0 28 28" fill="none" id="svg-336899863_1745">
<g clip-path="url(#svg-336899863_1745_clip0_54_928)">
<path d="M14 8.55566C15.0768 8.55566 16.1294 8.87497 17.0248 9.47322C17.9201 10.0715 18.6179 10.9218 19.03 11.9166C19.4421 12.9115 19.5499 14.0061 19.3398 15.0623C19.1297 16.1184 18.6112 17.0885 17.8498 17.8499C17.0884 18.6113 16.1183 19.1299 15.0621 19.3399C14.006 19.55 12.9113 19.4422 11.9165 19.0301C10.9216 18.618 10.0713 17.9202 9.4731 17.0249C8.87485 16.1295 8.55554 15.0769 8.55554 14.0001C8.55554 12.5562 9.12915 11.1713 10.1502 10.1503C11.1712 9.12927 12.556 8.55566 14 8.55566Z" fill="black"></path>
<path d="M14 26.4446C11.5387 26.4446 9.13271 25.7147 7.08623 24.3473C5.03975 22.9799 3.44472 21.0363 2.50282 18.7624C1.56093 16.4885 1.31449 13.9863 1.79466 11.5723C2.27484 9.15834 3.46005 6.94095 5.20044 5.20056C6.94083 3.46018 9.15822 2.27496 11.5722 1.79479C13.9862 1.31461 16.4883 1.56106 18.7623 2.50295C21.0362 3.44484 22.9798 5.03987 24.3472 7.08635C25.7146 9.13283 26.4444 11.5388 26.4444 14.0001C26.4444 17.3006 25.1333 20.4659 22.7995 22.7997C20.4658 25.1335 17.3005 26.4446 14 26.4446ZM14 3.11123C11.8464 3.11123 9.74112 3.74985 7.95045 4.94633C6.15978 6.14282 4.76412 7.84343 3.93997 9.83312C3.11582 11.8228 2.90018 14.0122 3.32033 16.1244C3.74048 18.2367 4.77755 20.1769 6.30038 21.6997C7.82322 23.2226 9.76344 24.2596 11.8757 24.6798C13.9879 25.0999 16.1773 24.8843 18.167 24.0601C20.1567 23.236 21.8573 21.8403 23.0538 20.0497C24.2503 18.259 24.8889 16.1537 24.8889 14.0001C24.8889 11.1122 23.7417 8.34257 21.6996 6.30051C19.6575 4.25844 16.8879 3.11123 14 3.11123Z" fill="black"></path>
</g>
<defs>
<clipPath id="svg-336899863_1745_clip0_54_928">
<rect width="28" height="28" fill="white"></rect>
</clipPath>
</defs>
</svg>