<svg xmlns="http://www.w3.org/2000/svg" width="141" height="20" viewBox="0 0 141 20" fill="none" id="svg2018705503_986">
<path d="M10.6667 0L12.9119 6.90983H20.1773L14.2995 11.1803L16.5446 18.0902L10.6667 13.8197L4.7889 18.0902L7.03404 11.1803L1.15618 6.90983H8.42161L10.6667 0Z" fill="#FF5C00"></path>
<path d="M40.6667 0L42.9119 6.90983H50.1773L44.2995 11.1803L46.5446 18.0902L40.6667 13.8197L34.7889 18.0902L37.034 11.1803L31.1562 6.90983H38.4216L40.6667 0Z" fill="#FF5C00"></path>
<path d="M70.6667 0L72.9119 6.90983H80.1773L74.2995 11.1803L76.5446 18.0902L70.6667 13.8197L64.7889 18.0902L67.034 11.1803L61.1562 6.90983H68.4216L70.6667 0Z" fill="#FF5C00"></path>
<path d="M100.667 0L102.912 6.90983H110.177L104.299 11.1803L106.545 18.0902L100.667 13.8197L94.7889 18.0902L97.034 11.1803L91.1562 6.90983H98.4216L100.667 0Z" fill="#FF5C00"></path>
<path d="M130.667 0L132.912 6.90983H140.177L134.299 11.1803L136.545 18.0902L130.667 13.8197L124.789 18.0902L127.034 11.1803L121.156 6.90983H128.422L130.667 0Z" fill="#FF5C00"></path>
</svg>