<svg xmlns="http://www.w3.org/2000/svg" viewBox="0 0 256 256" focusable="false" color="var(--token-2930fc96-2a19-4c51-bdb3-fa6e89c47e8a, rgb(84, 86, 237))" style="user-select: none; width: 100%; height: 100%; display: inline-block; fill: var(--token-2930fc96-2a19-4c51-bdb3-fa6e89c47e8a, rgb(84, 86, 237)); color: var(--token-2930fc96-2a19-4c51-bdb3-fa6e89c47e8a, rgb(84, 86, 237)); flex-shrink: 0;"><g color="var(--token-2930fc96-2a19-4c51-bdb3-fa6e89c47e8a, rgb(84, 86, 237))" weight="fill"><path d="M216,48H56A16,16,0,0,0,40,64V184a8,8,0,0,1-16,0V88A8,8,0,0,0,8,88v96.11A24,24,0,0,0,32,208H208a24,24,0,0,0,24-24V64A16,16,0,0,0,216,48ZM176,152H96a8,8,0,0,1,0-16h80a8,8,0,0,1,0,16Zm0-32H96a8,8,0,0,1,0-16h80a8,8,0,0,1,0,16Z"></path></g></svg>